<svg width="243" height="212" viewBox="0 0 243 212" fill="none" xmlns="http://www.w3.org/2000/svg">
<path fill-rule="evenodd" clip-rule="evenodd" d="M115.199 3.63169C117.999 -1.21057 125.001 -1.21056 127.801 3.63169L242.014 201.105C244.815 205.947 241.314 212 235.713 212H7.28708C1.68584 212 -1.81494 205.947 0.985686 201.105L115.199 3.63169ZM105.615 52.4212C105.161 43.3275 112.404 35.7053 121.5 35.7053C130.596 35.7053 137.839 43.3275 137.385 52.4212L132.033 159.57C131.752 165.189 127.12 169.6 121.5 169.6C115.88 169.6 111.248 165.189 110.967 159.57L105.615 52.4212ZM121.5 178.526C115.959 178.526 111.468 183.022 111.468 188.568C111.468 194.115 115.959 198.611 121.5 198.611C127.041 198.611 131.532 194.115 131.532 188.568C131.532 183.022 127.041 178.526 121.5 178.526Z" fill="#DB0000"/>
</svg>
