<svg width="221" height="187" viewBox="0 0 221 187" fill="none" xmlns="http://www.w3.org/2000/svg">
<g clip-path="url(#clip0_4_2)">
<path d="M13 25.0767C73.5 3.79602 90 17.796 99.5 52.296M109.5 62.296C123.5 34.5 151 4.71933 191.5 32" stroke="#FDB933" stroke-width="6" stroke-linecap="round"/>
<path d="M201.339 44C223.839 85 169 124 128.839 117.5C121.605 116.329 107.778 104.087 117.339 90.5C136.339 63.5 210.113 90.5 216.113 177" stroke="#091E8D" stroke-width="8" stroke-linecap="round"/>
<path d="M99.613 73.5C99.613 97.5 52.613 129.5 28.613 114.5C24.613 112 21.113 106 26.113 97.5C37.2327 78.5963 95.027 90.7105 104.613 123C115.152 158.5 90 175.832 66.6129 180.5C28.6129 188.084 -1.21297 167.472 6.11295 140" stroke="#091E8D" stroke-width="8" stroke-linecap="round"/>
<path d="M28 10C59 5.00001 90.6337 5.49998 103 36M109.5 43.5C120 23 151.6 2.09808e-05 176 10M40.5 1.99999C64.5 -0.500014 90.5 2 105.5 30.5" stroke="#FCEBBE" stroke-width="2" stroke-linecap="round"/>
</g>
<defs>
<clipPath id="clip0_4_2">
<rect width="221" height="187" fill="white"/>
</clipPath>
</defs>
</svg>
